<svg xmlns="http://www.w3.org/2000/svg" width="265" height="40" viewBox="0 0 265 40" fill="none">
<path d="M43.9961 21.9643C45.1232 18.582 43.2951 14.9264 39.9128 13.7993C36.5305 12.6722 32.8749 14.5004 31.7478 17.8827C30.6207 21.265 32.4489 24.9205 35.8312 26.0476C39.2135 27.1747 42.869 25.3466 43.9961 21.9643Z" fill="white"/>
<path d="M14.381 13.4146C17.9461 13.4146 20.8363 10.5245 20.8363 6.95939C20.8363 3.39426 17.9461 0.50415 14.381 0.50415C10.8159 0.50415 7.92578 3.39426 7.92578 6.95939C7.92578 10.5245 10.8159 13.4146 14.381 13.4146Z" fill="white"/>
<path d="M30.1911 26.3636C29.0996 26.3946 28.0292 26.6721 27.0601 27.1753L25.6686 24.8561C26.481 24.2851 27.1441 23.5268 27.6016 22.6454C28.0591 21.764 28.2976 20.7854 28.297 19.7924C28.3001 18.8808 28.0923 17.9808 27.69 17.1627C27.2877 16.3447 26.7017 15.6307 25.9778 15.0766L27.6013 12.7573C29.0483 13.3237 30.6572 13.3152 32.0982 12.7338C33.5392 12.1523 34.7034 11.0418 35.3521 9.62977C36.0009 8.21775 36.0852 6.6111 35.5877 5.13896C35.0902 3.66682 34.0486 2.44064 32.6763 1.7116C31.304 0.982572 29.7049 0.80588 28.2065 1.21773C26.7082 1.62958 25.424 2.59879 24.6171 3.9268C23.8102 5.25482 23.5417 6.84111 23.8666 8.3607C24.1914 9.8803 25.085 11.2182 26.3643 12.1002L24.8182 14.3422C24.0128 13.9427 23.1273 13.7312 22.2283 13.7237C20.6725 13.7395 19.1798 14.3411 18.0479 15.4085C16.9159 16.476 16.2279 17.9309 16.121 19.4832H12.9127C12.8604 18.2182 12.4375 16.9964 11.6966 15.9698C10.9557 14.9432 9.92937 14.157 8.74527 13.7089C7.56116 13.2608 6.27147 13.1705 5.0365 13.4494C3.80153 13.7282 2.67573 14.3639 1.79906 15.2773C0.922378 16.1907 0.333473 17.3416 0.105541 18.587C-0.122391 19.8324 0.0207009 21.1173 0.517032 22.282C1.01336 23.4467 1.84104 24.4399 2.8972 25.1381C3.95335 25.8363 5.1914 26.2086 6.45746 26.209C7.97452 26.214 9.44416 25.6807 10.6049 24.7039C11.7657 23.7271 12.5424 22.3703 12.7967 20.8747H16.1596C16.4188 22.2747 17.1598 23.5399 18.2542 24.4507C19.3486 25.3615 20.7272 25.8605 22.151 25.8611C22.8893 25.8556 23.6212 25.7249 24.3157 25.4745L25.8232 27.9484C25.147 28.5596 24.6054 29.3048 24.2327 30.1366C23.8601 30.9685 23.6645 31.8687 23.6585 32.7802C23.651 34.0552 24.0212 35.3039 24.7225 36.3688C25.4238 37.4337 26.4247 38.267 27.5991 38.7637C28.7734 39.2604 30.0686 39.3982 31.3211 39.1597C32.5737 38.9212 33.7275 38.3171 34.6372 37.4236C35.5468 36.5301 36.1715 35.3872 36.4323 34.1392C36.6932 32.8911 36.5787 31.5937 36.1031 30.4106C35.6275 29.2276 34.8122 28.2119 33.7601 27.4917C32.7079 26.7714 31.4661 26.3789 30.1911 26.3636Z" fill="#DC4405"/>
<path d="M14.381 39.3902C17.9461 39.3902 20.8363 36.5001 20.8363 32.935C20.8363 29.3698 17.9461 26.4797 14.381 26.4797C10.8159 26.4797 7.92578 29.3698 7.92578 32.935C7.92578 36.5001 10.8159 39.3902 14.381 39.3902Z" fill="white"/>
<path d="M64.3992 38.5397H57.6348V8.08024C57.6378 6.36914 58.3189 4.72901 59.5288 3.51908C60.7388 2.30915 62.3789 1.62807 64.09 1.625H74.1787V7.57774H67.9554C67.4931 7.5762 67.035 7.66614 66.6075 7.84237C66.18 8.0186 65.7917 8.27764 65.4647 8.60458C65.1378 8.93152 64.8788 9.31989 64.7025 9.74735C64.5263 10.1748 64.4364 10.6329 64.4379 11.0953V17.7824H73.483V23.7738H64.4379L64.3992 38.5397Z" fill="white"/>
<path d="M80.0156 38.5399V1.66382H86.4709V38.5785L80.0156 38.5399Z" fill="white"/>
<path d="M94.2793 1.66382H103.711C107.499 1.66382 110.321 2.39825 112.06 3.90576C113.8 5.41327 114.689 7.77117 114.689 11.0181C114.689 13.1827 114.225 14.9608 113.297 16.391C112.886 17.0784 112.331 17.6691 111.67 18.1227C111.01 18.5762 110.26 18.8821 109.47 19.0195V19.3288C111.558 19.8313 113.065 20.8363 114.032 22.2278C114.921 23.6194 115.423 25.5134 115.423 27.9486C115.423 31.3115 114.534 33.9014 112.717 35.7954C110.901 37.6895 108.465 38.6558 105.373 38.6558H94.2793V1.66382ZM100.696 16.4683H103.827C105.296 16.4683 106.301 16.0818 106.881 15.2701C107.46 14.4583 107.77 13.3374 107.77 11.7525C107.77 10.245 107.422 9.12406 106.765 8.46694C106.107 7.80982 105.025 7.46194 103.556 7.46194H100.657V16.4297L100.696 16.4683ZM100.696 22.1892V32.5098H104.213C104.808 32.5396 105.403 32.4411 105.956 32.221C106.51 32.0009 107.01 31.6644 107.422 31.2342C108.079 30.3452 108.465 28.9923 108.465 27.2142C108.465 23.9286 106.997 22.3051 104.136 22.3051H100.735L100.696 22.1892Z" fill="white"/>
<path d="M137.07 38.5398H120.448V1.66382H137.07V7.61655H127.29V16.4297H136.335V22.3824H127.29V32.5871H137.07V38.5398Z" fill="white"/>
<path d="M149.284 24.1605V38.5399H142.403V1.66382H151.371C155.198 1.66382 157.981 2.55286 159.798 4.36961C161.614 6.18635 162.503 8.93079 162.503 12.6416C162.503 17.2801 160.957 20.5657 157.788 22.4211L164.861 38.5785H157.556L151.719 24.1992H149.284V24.1605ZM149.284 18.2464H151.023C152.647 18.2464 153.768 17.7826 154.541 16.8549C155.314 15.9272 155.584 14.5356 155.584 12.7576C155.584 10.8248 155.198 9.54926 154.463 8.73752C153.729 7.92579 152.531 7.53925 150.946 7.53925H149.206V18.2851L149.284 18.2464Z" fill="white"/>
<path d="M181.444 38.5397L174.409 7.11389H174.1C174.427 9.32802 174.595 11.5628 174.602 13.801V38.5397H168.186V1.70231H178.738L185 30.6542H185.232L191.494 1.625H202.24V38.5783H195.669V13.5691C195.671 11.4513 195.787 9.33519 196.017 7.22985H195.785L188.75 38.5783H181.444V38.5397Z" fill="#DC4405"/>
<path d="M210.048 38.5399V1.66382H216.503V38.5785L210.048 38.5399Z" fill="#DC4405"/>
<path d="M238.381 38.5399L233.085 25.2816L228.215 38.5399H221.025L229.452 19.3675L221.644 1.62524H228.563L233.433 13.724L237.608 1.62524H244.798L236.99 19.6381L242.517 31.9687C242.852 32.668 243.005 33.4409 242.96 34.215C242.916 34.9892 242.676 35.7395 242.263 36.3958C241.85 37.052 241.277 37.5929 240.598 37.9679C239.919 38.3428 239.157 38.5397 238.381 38.5399Z" fill="#DC4405"/>
<path d="M264.828 5.76104C264.833 6.53226 264.685 7.29676 264.391 8.0098C264.097 8.72284 263.664 9.37007 263.117 9.91361C262.569 10.4572 261.919 10.8861 261.204 11.1753C260.489 11.4645 259.724 11.6081 258.953 11.5978C258.178 11.607 257.409 11.4631 256.691 11.1745C255.972 10.8859 255.317 10.4581 254.764 9.91581C254.211 9.3735 253.77 8.72732 253.468 8.01434C253.165 7.30135 253.006 6.53561 253 5.76104C253.007 4.99046 253.168 4.22904 253.472 3.521C253.776 2.81297 254.218 2.17242 254.772 1.63658C255.326 1.10073 255.981 0.680263 256.698 0.399586C257.416 0.11891 258.182 -0.0163778 258.953 0.00157982C259.719 -0.014905 260.481 0.121947 261.194 0.404094C261.906 0.686241 262.555 1.10799 263.103 1.64456C263.65 2.18113 264.085 2.8217 264.381 3.52861C264.677 4.23553 264.829 4.99454 264.828 5.76104ZM254.43 5.76104C254.412 6.36025 254.515 6.95698 254.732 7.51565C254.95 8.07431 255.277 8.58347 255.696 9.01274C256.114 9.44202 256.615 9.78263 257.168 10.0142C257.721 10.2459 258.315 10.3638 258.914 10.3609C261.427 10.3609 263.321 8.35087 263.321 5.7997C263.321 3.24853 261.465 1.1612 258.914 1.1612C258.316 1.16153 257.723 1.2816 257.172 1.51434C256.62 1.74707 256.121 2.08778 255.703 2.5164C255.285 2.94502 254.957 3.45289 254.739 4.01011C254.52 4.56734 254.415 5.16266 254.43 5.76104ZM258.064 8.77607H256.711V3.0166C257.425 2.89267 258.151 2.84087 258.875 2.86198C259.919 2.86198 260.422 3.0166 260.885 3.32583C261.082 3.47187 261.239 3.66555 261.34 3.88869C261.442 4.11182 261.485 4.35708 261.465 4.60142C261.465 5.21989 260.963 5.72239 260.267 5.95431V6.03162C260.847 6.26355 261.156 6.65009 261.311 7.42317C261.36 7.9401 261.518 8.44076 261.774 8.89203H260.306C260.085 8.45278 259.929 7.98414 259.842 7.50048C259.726 6.88201 259.378 6.61143 258.643 6.61143H258.025L258.064 8.77607ZM258.064 5.45181H258.682C259.417 5.45181 260.035 5.21989 260.035 4.64007C260.035 4.13757 259.649 3.75103 258.798 3.75103C258.552 3.76401 258.307 3.78981 258.064 3.82834V5.45181Z" fill="#DC4405"/>
</svg>